# xmcd CD database file
#
# Track frame offsets:
#	150
#	21900
#	43362
#	62737
#	86700
#	120587
#	139962
#	163837
#	195212
#	224475
#
# Disc length: 3381 seconds
#
# Revision: 0
# Processed by: cddbd v1.4PL0 Copyright (c) Steve Scherf et al.
# Submitted via: CDex 1.50beta10
#
DISCID=940d330a
DTITLE=Various Artist - Crowded Bar  Jazz --- My First Jazz
DYEAR=1997
DGENRE=Jazz
TTITLE0=If Only In Your Dream   Bill Evans
TTITLE1=Dream Of Water  East Bounce
TTITLE2=Can't Hide Love   John Tropea
TTITLE3=Your Song   Toshiki Nunokawa VALIS
TTITLE4=The Shadow Of The Fall  Dieter Ilg
TTITLE5=The Girl From Ipanema  Gamila Benson
TTITLE6=Dona Olga Luis Conte
TTITLE7=Reggae-Lypso   Ralph MacDonald
TTITLE8=Samba 4-2   Ralph MacDonald
TTITLE9=Piece O'Cake   Idris Muhammad
EXTD=YEAR: 1997
EXTT0=
EXTT1=
EXTT2=
EXTT3=
EXTT4=
EXTT5=
EXTT6=
EXTT7=
EXTT8=
EXTT9=
PLAYORDER=
